<svg
	xmlns="http://www.w3.org/2000/svg" viewBox="0 0 55.71 71.25">
	<defs>
		<style>.a{fill:#2a2a2a;}.b{fill:#ff6b00;}</style>
	</defs>
	<path class="a" d="M710.52,367.89v0a3,3,0,0,0-.31-1.41l-.37-.78a3.13,3.13,0,0,0-2.8-1.77h-.24c-4.78.37-11.3,2-19.41,4.8a96.78,96.78,0,0,0-6.3-19.13,2,2,0,0,0-1.88-1.24,2.13,2.13,0,0,0-1.66.8,2.08,2.08,0,0,0-.43,1.31v2.29a2,2,0,0,0,.06.49,122.82,122.82,0,0,1,2.91,18.19c-7.16,2.78-15.26,6.32-23.51,10.26a3.1,3.1,0,0,0-1.69,2.11,3.06,3.06,0,0,0-.07.73v2.29a3,3,0,0,0,.69,2,3.07,3.07,0,0,0,2.4,1.15,3,3,0,0,0,1.58-.44c2.2-1.28,4.6-2.55,7.16-3.76v2.74l-.31.06a2.48,2.48,0,0,0-2,2.45v.77h0v.95h0v.55a2.83,2.83,0,0,0,0,.5,2.45,2.45,0,0,0,1.34,1.71,1.81,1.81,0,0,0,.17.59,5.83,5.83,0,0,0,5.22,3.18,5.89,5.89,0,0,0,5.87-5.44s0,0,0,0h0a0,0,0,0,0,0,0v0a0,0,0,0,0,0,0v0s0,0,0,0v0s0,0,0,0v0s0,0,0,0h0s0,0,0,0h0a0,0,0,0,0,0,0s0,0,0-.06,0-.05,0-.07h0s0,0,0,0v0s0,0,0,0h0a0,0,0,0,0,0,0v0h0v0s0,0,0,0v0s0,0,0,0h0s0,0,0,0h0s0,0,0,0h0a2.44,2.44,0,0,0,.53-1.45s0,0,0,0,0,0,0,0,0,0,0,0,0,0,0,0,0,0,0,0,0,0,0,0v-.2s0,0,0,0,0,0,0,0V391s0,0,0,0,0,0,0,0,0,0,0,0v-.2h0v-.09s0,0,0,0,0,0,0,0v-.11s0,0,0,0,0,0,0,0v-.12s0,0,0,0,0,0,0,0V390s0,0,0,0,0,0,0,0v-.12s0,0,0,0,0,0,0,0v-.12s0,0,0,0,0,0,0,0v-.11s0,0,0,0,0,0,0,0v-.08a2.75,2.75,0,0,0,0-.57,2.45,2.45,0,0,0-2.4-2,2,2,0,0,0-.49.05L674,387l-1.69-3.73c2.56-1.05,5.25-2.06,8.05-3-.27,10.72-1.27,26-1.89,34.81,0,0,0,0,0,.05v0s0,0,0,0h0s0,0,0,0h0s0,0,0,0h0a.43.43,0,0,1,0,.05v0s0,0,0,0h0s0,0,0,0h0s0,0,0,0h0s0,0,0,.06h0s0,0,0,0h0s0,0,0,0h0s0,0,0,0h0s0,0,0,.06v0s0,0,0,0h0a0,0,0,0,1,0,0h0s0,0,0,0h0s0,0,0,.06v0s0,0,0,0h0s0,0,0,0h0s0,0,0,0h0s0,0,0,.06v0s0,0,0,0h0s0,0,0,0h0s0,0,0,0h0s0,0,0,.05v0s0,0,0,0h0s0,0,0,0h0s0,0,0,0h0a.43.43,0,0,0,0,.05v0s0,0,0,0h0s0,0,0,.06v0s0,0,0,.06v0s0,0,0,0h0s0,0,0,0h0s0,0,0,0h0s0,0,0,.06v0s0,0,0,0h0s0,0,0,0h0s0,0,0,0h0s0,.06,0,.09v0s0,0,0,0h0s0,0,0,0h0s0,0,0,0h0s0,0,0,0h0s0,0,0,0h0s0,0,0,0h0s0,0,0,0h0s0,0,0,0h0a2.06,2.06,0,0,0,2.08,2.22,2,2,0,0,0,2-1.62c2.65-11.84,5.81-28,5.81-37.92v-.11h0v-.22h0v-.12h0c0-.13,0-.26,0-.38v-.5c0-.06,0-.12,0-.18v-.09h0s0-.08,0-.11,0-.08,0-.12h0v-.07h0V378h0s0-.07,0-.11v-.22c2.94-.85,6-1.64,9-2.35v5l-4,1.18a2.12,2.12,0,0,0-1.5,2.24.22.22,0,0,0,0,.08,1.08,1.08,0,0,0,0,.18.48.48,0,0,0,0,.12s0,0,0,0v0a1.21,1.21,0,0,0,0,.19.85.85,0,0,0,0,.16v.08a.75.75,0,0,0,0,.15,1.08,1.08,0,0,0,0,.18V385a.75.75,0,0,0,0,.15,1.21,1.21,0,0,0,0,.19.48.48,0,0,0,0,.12s0,0,0,0v0s0,0,0,0,0,0,0,0,0,0,0,0,0,0,0,0,0,0,0,0v0a.22.22,0,0,0,0,.08s0,0,0,0V386a1.88,1.88,0,0,0,.08.52,2.13,2.13,0,0,0,1.55,1.45,1.55,1.55,0,0,0,.18.51c.88,1.49,2.87,2.34,5.46,2.34a13.89,13.89,0,0,0,3.94-.6c4.19-1.26,7-4,6.9-6.62h0v0h0v0h0v0h0v0h0v0h0s0-.05,0-.07h0v0h0v0h0v0h0v0h0v0h0v0h0a1.28,1.28,0,0,0,0-.19,3.3,3.3,0,0,0,.22-.3,2.12,2.12,0,0,0,.24-1.21s0,0,0,0,0,0,0,0a1.21,1.21,0,0,0,0-.19s0,0,0-.06,0-.05,0-.08a3.38,3.38,0,0,0,0-.45.27.27,0,0,1,0-.09V380a2.41,2.41,0,0,0,0-.38,2.41,2.41,0,0,0,0-.38,1.48,1.48,0,0,0,0-.21,2,2,0,0,0-.08-.43,2.12,2.12,0,0,0-2.65-1.44l-3.27,1-1.82-4c2.22-.46,4-.78,5.26-1a3.11,3.11,0,0,0,2.57-3v-2.26Z" transform="translate(-654.82 -348.33)"/>
	<polygon class="a" points="53.58 28.79 53.58 28.79 53.58 28.79 53.58 28.79"/>
	<path class="b" d="M708.15,378.68l-4.34,1.3-3.91-8.6c3.33-.73,6.05-1.24,7.84-1.55a1.82,1.82,0,0,0,1.48-2.1,1.6,1.6,0,0,0-.16-.48l-.38-.79a1.81,1.81,0,0,0-1.78-1c-5.57.42-13,2.55-20.49,5.23a91.64,91.64,0,0,0-6.48-20.32.79.79,0,0,0-1.5.5,120.93,120.93,0,0,1,3.19,21.6c-10.47,4-20.3,8.63-24.48,10.63a1.82,1.82,0,0,0-.86,2.43,1.69,1.69,0,0,0,.23.36,1.83,1.83,0,0,0,2.35.42,95.9,95.9,0,0,1,9.08-4.66v8.12l-1.34.28a1.17,1.17,0,1,0,.47,2.3h0l8.28-1.69a1.18,1.18,0,0,0,.91-1.39h0a1.17,1.17,0,0,0-1.38-.91h0l-1.65.33-3.55-7.81c4-1.74,8.06-3.24,12-4.53-.06,10.33-1.19,28-2,39a.79.79,0,0,0,1.56.23c2.39-10.66,5.79-27.58,5.79-37.64,0-1.07-.06-2.15-.15-3.25,4.29-1.26,8.29-2.26,11.73-3v9.87L693.8,383a.84.84,0,0,0-.5.42.8.8,0,0,0-.07.64.85.85,0,0,0,1.06.57l14.34-4.3a.79.79,0,0,0,.5-.41.82.82,0,0,0,.07-.65A.84.84,0,0,0,708.15,378.68Zm-35.68,10.14-3.77.77v-8.31l.28-.13Zm26.95-7.53v-9.13l3.65,8Z" transform="translate(-654.82 -348.33)"/>
	<path class="b" d="M708.22,381.17l-13.13,3.94a.41.41,0,0,0-.28.52l0,.08c1,1.7,4.37,2.23,7.94,1.16s6.08-3.36,6-5.32a.43.43,0,0,0-.45-.4Z" transform="translate(-654.82 -348.33)"/>
	<path class="b" d="M675.22,391.12l-7.84,1.6a.46.46,0,0,0-.35.54.37.37,0,0,0,.05.11,4.6,4.6,0,0,0,8.68-1.77.46.46,0,0,0-.42-.49Z" transform="translate(-654.82 -348.33)"/>
</svg>