<?xml version="1.0" standalone="no"?>
<!DOCTYPE svg PUBLIC "-//W3C//DTD SVG 20010904//EN"
 "http://www.w3.org/TR/2001/REC-SVG-20010904/DTD/svg10.dtd">
<svg version="1.0" xmlns="http://www.w3.org/2000/svg"
 width="113.000000pt" height="113.000000pt" viewBox="0 0 113.000000 113.000000"
 preserveAspectRatio="xMidYMid meet">
<metadata>
Created by potrace 1.14, written by Peter Selinger 2001-2017
</metadata>
<g transform="translate(0.000000,113.000000) scale(0.100000,-0.100000)"
fill="#000000" stroke="none">
<path d="M493 1122 c-23 -14 -24 -59 -5 -158 11 -54 23 -122 26 -149 l6 -51
-37 -13 c-102 -37 -330 -144 -345 -163 -22 -25 -23 -81 -2 -102 23 -24 58 -19
119 15 38 21 55 27 55 17 0 -7 -9 -21 -20 -31 -34 -29 -26 -77 20 -127 37 -40
42 -42 80 -37 23 3 50 13 61 23 21 19 39 73 39 121 0 34 -25 67 -45 59 -7 -2
-18 7 -24 20 -10 23 -8 26 35 44 25 11 50 20 55 20 12 0 11 -68 -6 -337 -8
-127 -12 -239 -9 -247 8 -22 44 -31 59 -15 23 25 89 385 101 557 l7 92 36 9
c97 26 91 27 91 -11 0 -31 -3 -35 -37 -44 -33 -8 -39 -14 -47 -46 -8 -31 -6
-40 15 -67 45 -57 129 -64 212 -18 49 28 67 62 67 131 0 61 -15 75 -63 57 -22
-9 -28 -7 -37 9 -17 31 -12 37 32 44 58 9 68 21 68 75 0 73 -14 85 -91 78 -54
-5 -191 -39 -250 -62 -13 -5 -20 7 -33 61 -22 87 -73 220 -92 239 -17 17 -24
18 -41 7z m477 -518 c0 -54 -146 -109 -200 -74 -21 13 -12 19 92 50 101 31
108 33 108 24z m-520 -167 c0 -16 -29 -44 -50 -48 -25 -5 -67 10 -73 25 -4 11
5 18 36 24 62 14 87 14 87 -1z"/>
</g>
</svg>
