<svg xmlns="http://www.w3.org/2000/svg" width="209.117" height="194.404" viewBox="0 0 209.117 194.404"><g transform="translate(-1572.377 -160.584)"><path d="M-520.109,806.327a13.515,13.515,0,0,1-18.968,2.172L-588.4,769.308a13.514,13.514,0,0,1-2.172-18.968,13.515,13.515,0,0,1,18.968-2.172l49.326,39.191A13.515,13.515,0,0,1-520.109,806.327Z" transform="translate(2555.393 -12.487) rotate(41)" fill="#2a2a2a"/><path d="M-520.148,810.481a13.515,13.515,0,0,1-18.968,2.171l-49.326-39.19a13.514,13.514,0,0,1-2.172-18.968,13.514,13.514,0,0,1,18.968-2.172l49.326,39.191A13.516,13.516,0,0,1-520.148,810.481Z" transform="translate(2555.393 -12.487) rotate(41)" fill="#2a2a2a"/><path d="M-589.009,751.584h0a11.5,11.5,0,0,1,16.158-1.85l49.326,39.191a11.5,11.5,0,0,1,1.85,16.158h0a11.5,11.5,0,0,1-16.158,1.85l-49.326-39.191A11.5,11.5,0,0,1-589.009,751.584Z" transform="translate(2555.393 -12.487) rotate(41)" fill="#97e600"/><path d="M-486.383,773.994a13.515,13.515,0,0,1-13.5-13.5v-63a13.515,13.515,0,0,1,13.5-13.5,13.516,13.516,0,0,1,13.5,13.5v63A13.515,13.515,0,0,1-486.383,773.994Z" transform="translate(2555.393 -12.487) rotate(41)" fill="#2a2a2a"/><path d="M-486.383,779.337a13.515,13.515,0,0,1-13.5-13.5v-63a13.515,13.515,0,0,1,13.5-13.5,13.516,13.516,0,0,1,13.5,13.5v63A13.515,13.515,0,0,1-486.383,779.337Z" transform="translate(2555.393 -12.487) rotate(41)" fill="#2a2a2a"/><path d="M-486.383,685.994h0a11.5,11.5,0,0,1,11.5,11.5v63a11.5,11.5,0,0,1-11.5,11.5h0a11.5,11.5,0,0,1-11.5-11.5v-63A11.5,11.5,0,0,1-486.383,685.994Z" transform="translate(2555.393 -12.487) rotate(41)" fill="#ff6b00"/><path d="M-452.878,803.74a13.515,13.515,0,0,1,3.135-18.833l51.258-36.628a13.515,13.515,0,0,1,18.833,3.136,13.514,13.514,0,0,1-3.135,18.832l-51.259,36.628A13.515,13.515,0,0,1-452.878,803.74Z" transform="translate(2555.393 -12.487) rotate(41)" fill="#2a2a2a"/><path d="M-453.223,809.406a13.515,13.515,0,0,1,3.135-18.833l51.259-36.628A13.515,13.515,0,0,1-380,757.081a13.515,13.515,0,0,1-3.136,18.832l-51.258,36.628A13.516,13.516,0,0,1-453.223,809.406Z" transform="translate(2555.393 -12.487) rotate(41)" fill="#2a2a2a"/><path d="M-381.279,752.577h0a11.5,11.5,0,0,1-2.671,16.043l-51.258,36.627a11.5,11.5,0,0,1-16.043-2.67h0a11.5,11.5,0,0,1,2.671-16.043l51.258-36.627A11.5,11.5,0,0,1-381.279,752.577Z" transform="translate(2555.393 -12.487) rotate(41)" fill="#82b326"/></g></svg>