<svg xmlns="http://www.w3.org/2000/svg" viewBox="0 0 72 76"><defs><style>.a{fill:#2a2a2a;}.b{fill:#95d82c;}.c{fill:#fff;}</style></defs><path class="a" d="M591.28,383.37a36,36,0,0,0-72,0c0,.67,0,1.34.06,2s-.06,1.33-.06,2a36,36,0,0,0,72,0c0-.67,0-1.34-.06-2S591.28,384,591.28,383.37Z" transform="translate(-519.28 -347.37)"/><circle class="b" cx="36" cy="36" r="32"/><path class="c" d="M537.78,370.37h36a3.5,3.5,0,0,1,3.5,3.5h0a3.5,3.5,0,0,1-3.5,3.5h-36a3.5,3.5,0,0,1-3.5-3.5h0A3.5,3.5,0,0,1,537.78,370.37Z" transform="translate(-519.28 -347.37)"/><path class="c" d="M537.78,380.37h36a3.5,3.5,0,0,1,3.5,3.5h0a3.5,3.5,0,0,1-3.5,3.5h-36a3.5,3.5,0,0,1-3.5-3.5h0A3.5,3.5,0,0,1,537.78,380.37Z" transform="translate(-519.28 -347.37)"/><path class="c" d="M537.78,390.37h36a3.5,3.5,0,0,1,3.5,3.5h0a3.5,3.5,0,0,1-3.5,3.5h-36a3.5,3.5,0,0,1-3.5-3.5h0A3.5,3.5,0,0,1,537.78,390.37Z" transform="translate(-519.28 -347.37)"/></svg>