<svg xmlns="http://www.w3.org/2000/svg" width="209.117" height="194.404" viewBox="0 0 209.117 194.404"><g transform="translate(209.117 194.404) rotate(180)"><path d="M73.391,5.1A13.515,13.515,0,0,0,54.423,2.925L5.1,42.116a13.5,13.5,0,1,0,16.8,21.14L71.219,24.065A13.515,13.515,0,0,0,73.391,5.1Z" transform="translate(2.754 144.457) rotate(-41)" fill="#2a2a2a"/><path d="M73.391,5.1A13.515,13.515,0,0,0,54.423,2.925L5.1,42.115a13.5,13.5,0,1,0,16.8,21.14L71.219,24.064A13.516,13.516,0,0,0,73.391,5.1Z" transform="translate(0 141.348) rotate(-41)" fill="#2a2a2a"/><path d="M2.5,57.845h0A11.5,11.5,0,0,0,18.655,59.7L67.981,20.5a11.5,11.5,0,0,0,1.85-16.158h0A11.5,11.5,0,0,0,53.673,2.5L4.347,41.687A11.5,11.5,0,0,0,2.5,57.845Z" transform="translate(5.568 144.654) rotate(-41)" fill="#97e600"/><path d="M13.5,0A13.515,13.515,0,0,0,0,13.5v63a13.5,13.5,0,0,0,27,0v-63A13.515,13.515,0,0,0,13.5,0Z" transform="translate(97.964 111.287) rotate(-41)" fill="#2a2a2a"/><path d="M13.5,0A13.515,13.515,0,0,0,0,13.5v63a13.5,13.5,0,0,0,27,0v-63A13.515,13.515,0,0,0,13.5,0Z" transform="translate(94.459 107.255) rotate(-41)" fill="#2a2a2a"/><path d="M11.5,86h0A11.5,11.5,0,0,0,23,74.5v-63A11.5,11.5,0,0,0,11.5,0h0A11.5,11.5,0,0,0,0,11.5v63A11.5,11.5,0,0,0,11.5,86Z" transform="translate(100.785 111.485) rotate(-41)" fill="#ff6b00"/><path d="M2.512,5.646A13.515,13.515,0,0,0,5.647,24.479L56.9,61.107A13.5,13.5,0,0,0,72.6,39.139L21.344,2.511A13.515,13.515,0,0,0,2.512,5.646Z" transform="translate(108.324 55.386) rotate(-41)" fill="#2a2a2a"/><path d="M2.512,5.646A13.515,13.515,0,0,0,5.647,24.479L56.906,61.107A13.5,13.5,0,1,0,72.6,39.139L21.345,2.511A13.516,13.516,0,0,0,2.512,5.646Z" transform="translate(104.346 51.336) rotate(-41)" fill="#2a2a2a"/><path d="M72.116,54.814h0a11.5,11.5,0,0,0-2.671-16.043L18.187,2.144A11.5,11.5,0,0,0,2.144,4.814h0A11.5,11.5,0,0,0,4.815,20.857L56.073,57.484A11.5,11.5,0,0,0,72.116,54.814Z" transform="translate(111.138 55.583) rotate(-41)" fill="#82b326"/></g></svg>