<svg xmlns="http://www.w3.org/2000/svg" width="524.455" height="411.43" viewBox="0 0 524.455 411.43"><g transform="translate(-601.928 1516.387)"><path d="M750.077-1499.322a32.747,32.747,0,0,1,46.045-4.47l117.864,97.017a32.744,32.744,0,0,1,4.468,46.045,32.749,32.749,0,0,1-46.048,4.47l-117.868-97.017A32.748,32.748,0,0,1,750.077-1499.322Z" transform="translate(200.212 7.333)" fill="#2a2a2a"/><path d="M750.186-1503.478a32.748,32.748,0,0,1,46.045-4.465L914.1-1410.929a32.747,32.747,0,0,1,4.47,46.045,32.749,32.749,0,0,1-46.048,4.47L754.654-1457.43A32.752,32.752,0,0,1,750.186-1503.478Z" transform="translate(200.372 1.425)" fill="#2a2a2a"/><path d="M911.88-1366.647h0a27.867,27.867,0,0,1-39.227,3.806h0l-117.868-97.014a27.868,27.868,0,0,1-3.806-39.225v0h0a27.868,27.868,0,0,1,39.225-3.806v0l117.871,97.014a27.869,27.869,0,0,1,3.806,39.225Z" transform="translate(203.052 10.171)" fill="#97e600"/><path d="M787.292-1496.584a32.746,32.746,0,0,1-8.383,45.5l-125.721,86.6a32.749,32.749,0,0,1-45.5-8.386,32.748,32.748,0,0,1,8.383-45.5l125.724-86.6A32.747,32.747,0,0,1,787.292-1496.584Z" transform="translate(0 8.051)" fill="#2a2a2a"/><path d="M787.729-1502.247a32.749,32.749,0,0,1-8.383,45.5l-125.723,86.6a32.748,32.748,0,0,1-45.488-8.383,32.75,32.75,0,0,1,8.386-45.5l125.721-86.6A32.753,32.753,0,0,1,787.729-1502.247Z" transform="translate(0.636 0)" fill="#2a2a2a"/><path d="M608.842-1378.46h0a27.865,27.865,0,0,1,7.143-38.755v0l125.721-86.6a27.866,27.866,0,0,1,38.757,7.138v0h0a27.864,27.864,0,0,1-7.14,38.755l0,0L647.6-1371.32a27.867,27.867,0,0,1-38.757-7.138Z" transform="translate(2.838 10.889)" fill="#82b326"/><path d="M767.764-1172.05a33.374,33.374,0,0,1-20.951-7.426l-65.5-53.065a33.1,33.1,0,0,1-12.158-22.407,33.1,33.1,0,0,1,7.249-24.445,33.184,33.184,0,0,1,25.9-12.342,33.381,33.381,0,0,1,20.954,7.431l13.83,11.206,1.466-172.471a32.863,32.863,0,0,1,32.7-32.148l.572.005a32.49,32.49,0,0,1,22.962,9.98,32.5,32.5,0,0,1,9.18,23.294l-1.393,168.365,10.818-8.764a33.387,33.387,0,0,1,20.951-7.429,33.186,33.186,0,0,1,25.9,12.34,33.352,33.352,0,0,1-4.911,46.852l-63.995,51.848a32.517,32.517,0,0,1-22.7,9.18Z" transform="translate(95.399 55.024)" fill="#2a2a2a"/><path d="M767.764-1167.071a33.376,33.376,0,0,1-20.951-7.426l-65.5-53.067a33.084,33.084,0,0,1-12.158-22.407,33.089,33.089,0,0,1,7.249-24.443,33.184,33.184,0,0,1,25.9-12.342,33.381,33.381,0,0,1,20.954,7.431l13.83,11.206,1.466-172.472a32.863,32.863,0,0,1,32.7-32.147l.572,0a32.489,32.489,0,0,1,22.962,9.98,32.5,32.5,0,0,1,9.18,23.294l-1.393,168.365,10.818-8.764a33.376,33.376,0,0,1,20.951-7.431,33.188,33.188,0,0,1,25.9,12.342,33.352,33.352,0,0,1-4.911,46.852l-63.995,51.848a32.516,32.516,0,0,1-22.7,9.181Z" transform="translate(95.399 62.109)" fill="#2a2a2a"/><path d="M853.629-1279.722h0a28.465,28.465,0,0,0-40.037-4.2L794.7-1268.613l1.575-178.756a27.868,27.868,0,0,0-27.382-28.344,27.865,27.865,0,0,0-28.343,27.382l-1.638,182.41-21.554-17.465a28.465,28.465,0,0,0-40.036,4.2,28.465,28.465,0,0,0,4.2,40.036l65.494,53.067a28.354,28.354,0,0,0,18.25,6.343h.032a27.762,27.762,0,0,0,19.972-7.957l64.164-51.986A28.465,28.465,0,0,0,853.629-1279.722Z" transform="translate(98.247 57.871)" fill="#ff6b00"/></g></svg>