<svg xmlns="http://www.w3.org/2000/svg" width="21.448" height="24.512" viewBox="0 0 21.448 24.512"><path d="M0,22.214a2.3,2.3,0,0,0,2.3,2.3H19.15a2.3,2.3,0,0,0,2.3-2.3V9.192H0Zm15.32-9.384a.576.576,0,0,1,.575-.575H17.81a.576.576,0,0,1,.575.575v1.915a.576.576,0,0,1-.575.575H15.895a.576.576,0,0,1-.575-.575Zm0,6.128a.576.576,0,0,1,.575-.574H17.81a.576.576,0,0,1,.575.574v1.915a.576.576,0,0,1-.575.574H15.895a.576.576,0,0,1-.575-.574ZM9.192,12.831a.576.576,0,0,1,.575-.575h1.915a.576.576,0,0,1,.575.575v1.915a.576.576,0,0,1-.575.575H9.767a.576.576,0,0,1-.575-.575Zm0,6.128a.576.576,0,0,1,.575-.574h1.915a.576.576,0,0,1,.575.574v1.915a.576.576,0,0,1-.575.574H9.767a.576.576,0,0,1-.575-.574ZM3.064,12.831a.576.576,0,0,1,.575-.575H5.554a.576.576,0,0,1,.575.575v1.915a.576.576,0,0,1-.575.575H3.639a.576.576,0,0,1-.575-.575Zm0,6.128a.576.576,0,0,1,.575-.574H5.554a.576.576,0,0,1,.575.574v1.915a.576.576,0,0,1-.575.574H3.639a.576.576,0,0,1-.575-.574ZM19.15,3.064h-2.3V.766A.768.768,0,0,0,16.086,0H14.554a.768.768,0,0,0-.766.766v2.3H7.66V.766A.768.768,0,0,0,6.894,0H5.362A.768.768,0,0,0,4.6.766v2.3H2.3A2.3,2.3,0,0,0,0,5.362v2.3H21.448v-2.3A2.3,2.3,0,0,0,19.15,3.064Z" fill="#d2d2d2"/></svg>